<svg width="19" height="16" viewBox="0 0 19 16" fill="none" xmlns="http://www.w3.org/2000/svg">
<g clip-path="url(#clip0_1_1416)">
<path d="M18.1498 13.2849H17.7742V2.21875C17.7742 1.94263 17.512 1.71875 17.1887 1.71875H13.6175C13.2942 1.71875 13.032 1.94263 13.032 2.21875V13.2849H11.7389V4.552C11.7389 4.27588 11.4767 4.052 11.1534 4.052H7.5822C7.25887 4.052 6.99672 4.27588 6.99672 4.552V13.2849H5.70355V6.88538C5.70355 6.60925 5.4414 6.38538 5.11807 6.38538H1.54689C1.22356 6.38538 0.961407 6.60925 0.961407 6.88538V13.2849H0.585478C0.26215 13.2849 0 13.5088 0 13.7849C0 14.061 0.26215 14.2849 0.585478 14.2849H18.1498C18.4731 14.2849 18.7353 14.061 18.7353 13.7849C18.7353 13.5088 18.4731 13.2849 18.1498 13.2849ZM14.2028 2.71875H16.6031V13.2849H14.2028V2.71875ZM8.16768 13.2849V5.052H10.5679V13.2849H8.16768ZM2.13236 7.38538H4.53259V13.2849H2.13236V7.38538Z" fill="#041E42"/>
</g>
<defs>
<clipPath id="clip0_1_1416">
<rect width="18.7353" height="16" fill="white"/>
</clipPath>
</defs>
</svg>
