<svg width="14" height="14" viewBox="0 0 14 14" fill="none" xmlns="http://www.w3.org/2000/svg">
<g clip-path="url(#clip0_1_1534)">
<path d="M0.63765 14.0001C0.511492 14.0001 0.388162 13.96 0.283259 13.8849C0.178355 13.8098 0.0965919 13.703 0.0483105 13.5781C2.90607e-05 13.4532 -0.0126012 13.3157 0.0120173 13.1831C0.0366358 13.0505 0.0973971 12.9287 0.186615 12.8331L11.9727 0.200246C12.0923 0.0720308 12.2546 0 12.4237 0C12.5929 0 12.7551 0.0720308 12.8748 0.200246C12.9944 0.328462 13.0616 0.50236 13.0616 0.683684C13.0616 0.865008 12.9944 1.03891 12.8748 1.16712L1.08868 13.7999C1.02951 13.8635 0.959199 13.9139 0.881797 13.9482C0.804395 13.9826 0.721424 14.0002 0.63765 14.0001Z" fill="#041E42"/>
<path d="M11.4237 14.0001C11.3399 14.0002 11.2569 13.9826 11.1795 13.9482C11.1021 13.9139 11.0318 13.8635 10.9727 13.7999L-0.81342 1.16712C-0.933041 1.03891 -1.00024 0.865008 -1.00024 0.683684C-1.00024 0.50236 -0.933041 0.328462 -0.81342 0.200246C-0.693798 0.0720308 -0.531556 0 -0.362386 0C-0.193215 0 -0.0309732 0.0720308 0.0886484 0.200246L11.8747 12.8331C11.9639 12.9287 12.0247 13.0505 12.0493 13.1831C12.0739 13.3157 12.0613 13.4532 12.013 13.5781C11.9647 13.703 11.883 13.8098 11.7781 13.8849C11.6732 13.96 11.5498 14.0001 11.4237 14.0001Z" fill="#041E42"/>
</g>
<defs>
<clipPath id="clip0_1_1534">
<rect width="13.0616" height="14" fill="white"/>
</clipPath>
</defs>
</svg>
