<svg width="38" height="24" viewBox="0 0 38 24" fill="none" xmlns="http://www.w3.org/2000/svg">
<g clip-path="url(#clip0_1_800)">
<path d="M34.2476 0H2.93551C1.27205 0 0 1.3 0 3V21C0 22.7 1.3699 24 2.93551 24H34.2476C35.911 24 37.1831 22.7 37.1831 21V3C37.1831 1.3 35.8132 0 34.2476 0Z" fill="#F3F5F6"/>
<path d="M34.2476 1C35.324 1 36.2046 1.9 36.2046 3V21C36.2046 22.1 35.324 23 34.2476 23H2.93552C1.85917 23 0.978516 22.1 0.978516 21V3C0.978516 1.9 1.85917 1 2.93552 1H34.2476Z" fill="#006FCF"/>
<path d="M8.7782 10.268L9.53556 12.144H8.02671L8.7782 10.268ZM24.5076 10.346H21.5946V11.173H24.4607V12.412H21.6005V13.334H24.5135V14.073L26.5458 11.828L24.5135 9.488L24.5076 10.346ZM10.7469 8.006H14.6561L15.524 9.941L16.3283 8H26.4754L27.5302 9.19L28.6213 8H33.2819L29.8385 11.852L33.2466 15.68H28.5166L27.4617 14.49L26.3609 15.68H9.81443L9.33105 14.49H8.22535L7.74099 15.68H3.91406L7.12942 8H10.4857L10.7469 8.006ZM19.2237 9.084H17.0328L15.5651 12.62L13.975 9.084H11.8008V13.894L9.78508 9.084H7.83492L5.50413 14.596H7.0257L7.50908 13.406H10.0493L10.5327 14.596H13.1942V10.661L14.9075 14.602H16.072L17.7746 10.673V14.603H19.2012L19.2247 9.083L19.2237 9.084ZM28.3629 11.852L30.8395 9.084H29.0567L27.4901 10.81L25.9754 9.084H20.2081V14.602H25.8932L27.4725 12.864L28.9872 14.602H30.8219L28.3639 11.852H28.3629Z" fill="white"/>
</g>
<defs>
<clipPath id="clip0_1_800">
<rect width="37.1831" height="24" fill="white"/>
</clipPath>
</defs>
</svg>
