<svg width="38" height="24" viewBox="0 0 38 24" fill="none" xmlns="http://www.w3.org/2000/svg">
<g clip-path="url(#clip0_1_764)">
<path d="M34.2476 0H2.93551C1.27205 0 0 1.3 0 3V21C0 22.7 1.3699 24 2.93551 24H34.2476C35.911 24 37.1831 22.7 37.1831 21V3C37.1831 1.3 35.8132 0 34.2476 0Z" fill="#F3F5F6"/>
<path d="M34.2476 1C35.324 1 36.2046 1.9 36.2046 3V21C36.2046 22.1 35.324 23 34.2476 23H2.93552C1.85917 23 0.978516 22.1 0.978516 21V3C0.978516 1.9 1.85917 1 2.93552 1H34.2476Z" fill="white"/>
<path d="M27.6917 10.1H27.3981C27.0067 11.1 26.7132 11.6 26.4196 13.1H28.2788C27.9852 11.6 27.9852 10.9 27.6917 10.1ZM30.5293 16H28.8659C28.768 16 28.768 16 28.6702 15.9L28.4745 15L28.3766 14.8H26.0282C25.9304 14.8 25.8325 14.8 25.8325 15L25.539 15.9C25.539 16 25.4411 16 25.4411 16H23.3863L23.582 15.5L26.4196 8.7C26.4196 8.2 26.7132 8 27.2024 8H28.6702C28.768 8 28.8659 8 28.8659 8.2L30.2358 14.7C30.3336 15.1 30.4315 15.4 30.4315 15.8C30.5293 15.9 30.5293 15.9 30.5293 16ZM17.4174 15.7L17.8088 13.9C17.9067 13.9 18.0045 14 18.0045 14C18.6895 14.3 19.3744 14.5 20.0594 14.4C20.2551 14.4 20.5486 14.3 20.7443 14.2C21.2336 14 21.2336 13.5 20.8422 13.1C20.6465 12.9 20.3529 12.8 20.0594 12.6C19.668 12.4 19.2766 12.2 18.983 11.9C17.8088 10.9 18.2002 9.5 18.8852 8.8C19.4723 8.4 19.7658 8 20.5486 8C21.7228 8 22.9949 8 23.582 8.2H23.6798C23.582 8.8 23.4841 9.3 23.2884 9.9C22.7992 9.7 22.3099 9.5 21.8207 9.5C21.5271 9.5 21.2336 9.5 20.94 9.6C20.7443 9.6 20.6465 9.7 20.5486 9.8C20.3529 10 20.3529 10.3 20.5486 10.5L21.0379 10.9C21.4293 11.1 21.8207 11.3 22.1142 11.5C22.6035 11.8 23.0927 12.3 23.1906 12.9C23.3863 13.8 23.0927 14.6 22.3099 15.2C21.8207 15.6 21.625 15.8 20.94 15.8C19.5701 15.8 18.4938 15.9 17.6131 15.6C17.5153 15.8 17.5153 15.8 17.4174 15.7ZM13.9927 16C14.0905 15.3 14.0905 15.3 14.1884 15C14.6776 12.8 15.1669 10.5 15.5583 8.3C15.6561 8.1 15.6561 8 15.8518 8H17.6131C17.4174 9.2 17.2217 10.1 16.9282 11.2C16.6346 12.7 16.3411 14.2 15.9497 15.7C15.9497 15.9 15.8518 15.9 15.6561 15.9L13.9927 16ZM4.89258 8.2C4.89258 8.1 5.08828 8 5.18613 8H8.51304C9.00229 8 9.39369 8.3 9.49154 8.8L10.3722 13.2C10.3722 13.3 10.3722 13.3 10.47 13.4C10.47 13.3 10.5679 13.3 10.5679 13.3L12.6227 8.2C12.5249 8.1 12.6227 8 12.7206 8H14.7755C14.7755 8.1 14.7755 8.1 14.6776 8.2L11.6442 15.5C11.5464 15.7 11.5464 15.8 11.4485 15.9C11.3507 16 11.155 15.9 10.9593 15.9H9.49154C9.39369 15.9 9.29584 15.9 9.29584 15.7L7.73024 9.5C7.53454 9.3 7.24098 9 6.84958 8.9C6.26248 8.6 5.18613 8.4 4.99043 8.4L4.89258 8.2Z" fill="#142688"/>
</g>
<defs>
<clipPath id="clip0_1_764">
<rect width="37.1831" height="24" fill="white"/>
</clipPath>
</defs>
</svg>
