<svg width="25" height="16" viewBox="0 0 25 16" fill="none" xmlns="http://www.w3.org/2000/svg">
<g clip-path="url(#clip0_1_816)">
<path d="M14.6764 16C15.4883 16 16.1963 15.5335 16.1963 14.9985V12.6596H17.2112C17.8202 12.6596 18.2261 12.392 18.2261 11.9909V5.31055H6.05713V11.9909C6.05713 12.3922 6.46308 12.6596 7.07201 12.6596H8.08698V14.9986C8.08698 15.5335 8.79485 16.0001 9.60692 16.0001C10.4187 16.0001 11.1267 15.5335 11.1267 14.9986V12.6596H13.1565V14.9986C13.1565 15.5335 13.8645 16 14.6764 16Z" fill="black"/>
<path d="M20.7611 11.9909C21.5731 11.9909 22.2809 11.5244 22.2809 10.9894V6.31162C22.2809 5.77948 21.5731 5.31055 20.7611 5.31055C19.9492 5.31055 19.2412 5.77948 19.2412 6.31162V10.9894C19.2412 11.5244 19.9491 11.9909 20.7611 11.9909Z" fill="black"/>
<path d="M3.52222 11.9909C4.33421 11.9909 5.04215 11.5244 5.04215 10.9894V6.31162C5.04215 5.77948 4.33429 5.31055 3.52222 5.31055C2.71031 5.31055 2.00244 5.77948 2.00244 6.31162V10.9894C2.00244 11.5244 2.71031 11.9909 3.52222 11.9909Z" fill="black"/>
<path d="M17.0082 0.100908C16.8053 -0.033636 16.5032 -0.033636 16.3003 0.100908L14.9391 0.994825L14.8763 1.03615C14.0692 0.769837 13.1642 0.636841 12.1565 0.63556C12.1515 0.63556 12.1467 0.635453 12.1417 0.635453H12.1416C12.1365 0.635453 12.1318 0.63556 12.1267 0.63556C11.119 0.636841 10.2141 0.769837 9.40702 1.03615L9.34406 0.994825L7.98294 0.100908C7.77988 -0.033636 7.47797 -0.033636 7.27507 0.100908C7.07201 0.234704 7.07201 0.433264 7.27507 0.566953L8.59179 1.43471C8.16752 1.62136 7.7828 1.84977 7.44823 2.11101C6.64726 2.73658 6.13638 3.55073 6.06612 4.43285C6.06547 4.44203 6.0641 4.45111 6.06345 4.46029C6.05915 4.52036 6.05713 4.58074 6.05713 4.64134H18.2261C18.2261 4.58074 18.2239 4.52036 18.2198 4.46029C18.2191 4.45111 18.2178 4.44203 18.2169 4.43285C18.1469 3.55073 17.6358 2.73653 16.8348 2.11106C16.5004 1.84982 16.1155 1.62142 15.6913 1.43476L17.0082 0.567007C17.2112 0.433264 17.2112 0.234704 17.0082 0.100908ZM9.60497 3.47374C9.18508 3.47374 8.84468 3.24945 8.84468 2.97278C8.84468 2.69611 9.18508 2.47182 9.60497 2.47182C10.0249 2.47182 10.3653 2.69611 10.3653 2.97278C10.3653 3.24945 10.0249 3.47374 9.60497 3.47374ZM14.6783 3.47374C14.2584 3.47374 13.918 3.24945 13.918 2.97278C13.918 2.69611 14.2584 2.47182 14.6783 2.47182C15.0982 2.47182 15.4386 2.69611 15.4386 2.97278C15.4386 3.24945 15.0982 3.47374 14.6783 3.47374Z" fill="black"/>
</g>
<defs>
<clipPath id="clip0_1_816">
<rect width="24.2826" height="16" fill="white"/>
</clipPath>
</defs>
</svg>
