<svg width="38" height="24" viewBox="0 0 38 24" fill="none" xmlns="http://www.w3.org/2000/svg">
<g clip-path="url(#clip0_1_768)">
<path d="M34.2476 0H2.93551C1.27205 0 0 1.3 0 3V21C0 22.7 1.3699 24 2.93551 24H34.2476C35.911 24 37.1831 22.7 37.1831 21V3C37.1831 1.3 35.8132 0 34.2476 0Z" fill="#F3F5F6"/>
<path d="M34.2476 1C35.324 1 36.2046 1.9 36.2046 3V21C36.2046 22.1 35.324 23 34.2476 23H2.93552C1.85917 23 0.978516 22.1 0.978516 21V3C0.978516 1.9 1.85917 1 2.93552 1H34.2476Z" fill="white"/>
<path d="M14.6776 19C18.4605 19 21.5272 15.866 21.5272 12C21.5272 8.13401 18.4605 5 14.6776 5C10.8948 5 7.82812 8.13401 7.82812 12C7.82812 15.866 10.8948 19 14.6776 19Z" fill="#EB001B"/>
<path d="M22.5058 19C26.2887 19 29.3553 15.866 29.3553 12C29.3553 8.13401 26.2887 5 22.5058 5C18.7229 5 15.6562 8.13401 15.6562 12C15.6562 15.866 18.7229 19 22.5058 19Z" fill="#F79E1B"/>
<path d="M21.5273 11.9998C21.5273 9.5998 20.3531 7.4998 18.5918 6.2998C16.8305 7.5998 15.6562 9.6998 15.6562 11.9998C15.6562 14.2998 16.8305 16.4998 18.5918 17.6998C20.3531 16.4998 21.5273 14.3998 21.5273 11.9998Z" fill="#FF5F00"/>
</g>
<defs>
<clipPath id="clip0_1_768">
<rect width="37.1831" height="24" fill="white"/>
</clipPath>
</defs>
</svg>
