<svg width="38" height="24" viewBox="0 0 38 24" fill="none" xmlns="http://www.w3.org/2000/svg">
<g clip-path="url(#clip0_1_774)">
<path d="M33.6478 0H3.53509C3.40965 0 3.28399 0 3.15877 0.00067947C3.05306 0.00158543 2.94757 0.00271788 2.84186 0.00566225C2.61159 0.012004 2.37933 0.0260463 2.15195 0.0677205C1.92391 0.107648 1.70297 0.182074 1.4964 0.288548C1.08111 0.504411 0.743567 0.849374 0.532345 1.27378C0.427974 1.48497 0.35514 1.71095 0.316265 1.94419C0.275043 2.17679 0.261524 2.41393 0.255319 2.64903C0.252618 2.75697 0.250993 2.86493 0.250443 2.97291C0.25 3.10065 0.25 3.22884 0.25 3.35726V20.6425C0.25 20.7709 0.25 20.8989 0.250443 21.0273C0.251108 21.1351 0.252438 21.2432 0.255319 21.3512C0.261524 21.5858 0.275265 21.8232 0.316265 22.0556C0.35506 22.2888 0.42782 22.5148 0.532123 22.726C0.636991 22.9369 0.773874 23.1296 0.93769 23.2967C1.10122 23.4642 1.28973 23.6041 1.49617 23.7112C1.70605 23.8206 1.92102 23.8902 2.15217 23.9325C2.37933 23.974 2.61159 23.988 2.84186 23.9943C2.94757 23.9968 3.05306 23.9982 3.15877 23.9989C3.28399 23.9998 3.40965 23.9998 3.53509 23.9998H33.6478C33.773 23.9998 33.8987 23.9998 34.0239 23.9989C34.1294 23.9984 34.2349 23.9968 34.3411 23.9943C34.5709 23.988 34.8031 23.974 35.031 23.9325C35.2591 23.8925 35.48 23.818 35.6865 23.7112C36.1016 23.4951 36.4391 23.1502 36.6506 22.726C36.7576 22.5115 36.8254 22.2918 36.8664 22.0556C36.9077 21.8232 36.9209 21.5858 36.9272 21.3512C36.93 21.2432 36.9316 21.1351 36.932 21.0273C36.9329 20.8989 36.9329 20.7709 36.9329 20.6425V3.35749C36.9329 3.22907 36.9329 3.10087 36.932 2.97268C36.9316 2.86478 36.93 2.75689 36.9272 2.64903C36.9209 2.41393 36.9077 2.17679 36.8664 1.94419C36.8278 1.71091 36.7551 1.4849 36.6506 1.27378C36.4393 0.849448 36.1017 0.504513 35.6865 0.288548C35.4799 0.182184 35.259 0.107836 35.031 0.067947C34.8031 0.0260463 34.5709 0.0122305 34.3411 0.00588874C34.2354 0.00314533 34.1297 0.00148432 34.0239 0.000905959C33.8987 0 33.773 0 33.6478 0Z" fill="#F3F5F6"/>
<path d="M33.6478 0.799805L34.0183 0.800484C34.1185 0.801164 34.2189 0.802296 34.3197 0.805014C34.4955 0.809997 34.7007 0.819736 34.8922 0.854842C35.0584 0.885418 35.198 0.931848 35.3319 1.00161C35.5998 1.1408 35.8174 1.36345 35.9533 1.63736C36.0211 1.77326 36.0663 1.91504 36.0962 2.08649C36.1304 2.27992 36.1399 2.49033 36.1446 2.67084C36.1474 2.77276 36.1488 2.87468 36.149 2.97886C36.1501 3.10502 36.1501 3.23095 36.1501 3.35733V20.6426C36.1501 20.769 36.1501 20.8949 36.1492 21.0235C36.1488 21.1255 36.1474 21.2274 36.1448 21.3293C36.1399 21.5096 36.1304 21.72 36.0958 21.9157C36.0707 22.0713 36.0225 22.2222 35.9529 22.363C35.8166 22.637 35.5987 22.8597 35.3305 22.9988C35.1976 23.0681 35.0584 23.1145 34.8937 23.1448C34.6985 23.1804 34.4844 23.1901 34.3233 23.1947C34.222 23.1969 34.1212 23.1985 34.0177 23.199C33.8947 23.1999 33.771 23.1999 33.6478 23.1999H3.53016C3.40827 23.1999 3.28638 23.1999 3.16227 23.199C3.06253 23.1985 2.9628 23.1972 2.86308 23.1949C2.6982 23.1904 2.48411 23.1804 2.29041 23.1451C2.13727 23.119 1.98887 23.0694 1.85027 22.9979C1.71733 22.9288 1.59599 22.8386 1.49081 22.7306C1.38529 22.623 1.29717 22.4989 1.22974 22.363C1.16009 22.2214 1.11182 22.0698 1.08657 21.9134C1.052 21.718 1.04224 21.5085 1.03781 21.3295C1.03531 21.2272 1.03383 21.1249 1.03338 21.0226L1.03271 20.7221V3.27806L1.03316 2.97796C1.03362 2.8755 1.03509 2.77304 1.03759 2.67061C1.04247 2.49123 1.052 2.28173 1.08679 2.08468C1.11209 1.9286 1.16036 1.77733 1.22996 1.63601C1.29733 1.50056 1.38509 1.3769 1.49147 1.26841C1.5969 1.16049 1.71838 1.07029 1.85138 1.00115C1.98964 0.930167 2.13757 0.880844 2.29019 0.854842C2.48189 0.819736 2.68734 0.809997 2.8633 0.805014C2.96348 0.802296 3.06387 0.801164 3.16338 0.800484L3.53504 0.799805H33.6478Z" fill="white"/>
<path d="M9.89241 8.10171C10.2036 7.70422 10.4145 7.17039 10.3589 6.625C9.90371 6.6481 9.34833 6.93189 9.02654 7.32984C8.73777 7.67048 8.48224 8.22651 8.54872 8.74902C9.05978 8.79432 9.5704 8.48811 9.89241 8.10171Z" fill="black"/>
<path d="M10.3531 8.85119C9.61071 8.80589 8.97998 9.28152 8.62561 9.28152C8.27102 9.28152 7.72827 8.87384 7.14119 8.88493C6.37726 8.89626 5.66852 9.33791 5.28068 10.04C4.48329 11.4443 5.07014 13.528 5.84582 14.6717C6.22235 15.238 6.67623 15.8608 7.27416 15.8384C7.8393 15.8158 8.0607 15.4647 8.74728 15.4647C9.43364 15.4647 9.6331 15.8384 10.2313 15.8271C10.8513 15.8157 11.2392 15.2608 11.6157 14.6946C12.0479 14.0491 12.2245 13.4263 12.2356 13.3923C12.2245 13.381 11.0397 12.9165 11.0286 11.5235C11.0176 10.3571 11.959 9.80222 12.0033 9.76802C11.4717 8.96443 10.641 8.87384 10.3529 8.85119" fill="black"/>
<path d="M17.7522 7.27295C19.3651 7.27295 20.4885 8.40925 20.4885 10.0635C20.4885 11.7237 19.3421 12.8659 17.7118 12.8659H15.926V15.7686H14.6357V7.27295H17.7522ZM15.926 11.759H17.4064C18.5301 11.759 19.1692 11.1409 19.1692 10.0694C19.1692 8.99812 18.5298 8.38569 17.4122 8.38569H15.926V11.759Z" fill="black"/>
<path d="M20.8086 14.008C20.8086 12.9188 21.6208 12.2949 23.1185 12.2006L24.7257 12.1005V11.6294C24.7257 10.9409 24.2823 10.564 23.4931 10.564C22.842 10.564 22.3695 10.9053 22.272 11.4292H21.108C21.1428 10.3285 22.1565 9.52783 23.5277 9.52783C25.0023 9.52783 25.9644 10.3167 25.9644 11.5413V15.7683H24.7721V14.7498H24.7433C24.4033 15.415 23.6542 15.8329 22.842 15.8329C21.6439 15.8329 20.8086 15.1031 20.8086 14.008ZM24.7257 13.4606V12.9836L23.2914 13.0778C22.4847 13.1308 22.0645 13.4368 22.0645 13.9725C22.0645 14.4907 22.5022 14.8263 23.1877 14.8263C24.0631 14.8263 24.7257 14.2551 24.7257 13.4606Z" fill="black"/>
<path d="M27.0607 18.0408V17.0225C27.1414 17.034 27.337 17.0458 27.4408 17.0458C28.011 17.0458 28.3337 16.7989 28.5296 16.1627L28.6448 15.7861L26.4614 9.60449H27.8093L29.3303 14.6203H29.3591L30.8799 9.60449H32.1934L29.9294 16.098C29.4108 17.5876 28.8175 18.0763 27.5618 18.0763C27.4638 18.0763 27.1469 18.0646 27.0607 18.0408Z" fill="black"/>
</g>
<defs>
<clipPath id="clip0_1_774">
<rect width="37.1831" height="24" fill="white"/>
</clipPath>
</defs>
</svg>
