<svg width="38" height="24" viewBox="0 0 38 24" fill="none" xmlns="http://www.w3.org/2000/svg">
<g clip-path="url(#clip0_1_785)">
<path d="M34.2476 0H2.93551C1.27205 0 0 1.3 0 3V21C0 22.7 1.3699 24 2.93551 24H34.2476C35.911 24 37.1831 22.7 37.1831 21V3C37.1831 1.3 35.8132 0 34.2476 0Z" fill="#F3F5F6"/>
<path d="M34.2476 1C35.324 1 36.2046 1.9 36.2046 3V21C36.2046 22.1 35.324 23 34.2476 23H2.93552C1.85917 23 0.978516 22.1 0.978516 21V3C0.978516 1.9 1.85917 1 2.93552 1H34.2476Z" fill="white"/>
<path d="M3.49328 7.16004H1.95703V12.66H3.49328C4.30544 12.66 4.89254 12.46 5.41115 12.03C6.0276 11.51 6.38965 10.73 6.38965 9.92004C6.37986 8.29004 5.19587 7.16004 3.49328 7.16004ZM4.72619 11.3C4.3935 11.6 3.97275 11.74 3.28779 11.74H3.00403V8.10004H3.28779C3.96296 8.10004 4.37393 8.22004 4.72619 8.54004C5.08824 8.87004 5.30351 9.38004 5.30351 9.91004C5.30351 10.44 5.08824 10.97 4.72619 11.3ZM6.86911 7.16004H7.91611V12.66H6.86911V7.16004ZM10.4798 9.27004C9.85355 9.03004 9.66763 8.87004 9.66763 8.58004C9.66763 8.23004 10.0003 7.97004 10.4504 7.97004C10.7636 7.97004 11.0277 8.10004 11.2919 8.42004L11.8399 7.69004C11.3898 7.29004 10.8516 7.08004 10.2547 7.08004C9.30558 7.08004 8.57171 7.76004 8.57171 8.66004C8.57171 9.42004 8.91418 9.81004 9.89269 10.17C10.3037 10.32 10.5091 10.42 10.6168 10.48C10.8223 10.62 10.9299 10.82 10.9299 11.05C10.9299 11.5 10.5874 11.83 10.1177 11.83C9.61871 11.83 9.21752 11.57 8.97289 11.1L8.29773 11.77C8.77719 12.5 9.3643 12.82 10.1569 12.82C11.243 12.82 12.016 12.08 12.016 11.01C12.0356 10.12 11.6736 9.72004 10.4798 9.27004ZM12.3585 9.92004C12.3585 11.54 13.6012 12.79 15.1962 12.79C15.6463 12.79 16.0377 12.7 16.5074 12.47V11.21C16.0866 11.64 15.7148 11.81 15.2451 11.81C14.1883 11.81 13.4349 11.03 13.4349 9.91004C13.4349 8.85004 14.2079 8.02004 15.1962 8.02004C15.6952 8.02004 16.0768 8.20004 16.5074 8.64004V7.38004C16.0475 7.14004 15.6659 7.04004 15.2157 7.04004C13.6404 7.04004 12.3585 8.32004 12.3585 9.92004ZM24.8442 10.86L23.4058 7.16004H22.261L24.5409 12.8H25.1084L27.4275 7.16004H26.2924L24.8442 10.86ZM27.9069 12.66H30.8816V11.73H28.9539V10.25H30.8131V9.32004H28.9539V8.10004H30.8816V7.16004H27.9069V12.66ZM35.0402 8.79004C35.0402 7.76004 34.3455 7.17004 33.1321 7.17004H31.5763V12.67H32.6233V10.46H32.7603L34.2085 12.67H35.5001L33.8073 10.35C34.5999 10.18 35.0402 9.63004 35.0402 8.79004ZM32.9266 9.70004H32.6233V8.03004H32.9462C33.6018 8.03004 33.9541 8.31004 33.9541 8.85004C33.9541 9.40004 33.6018 9.70004 32.9266 9.70004Z" fill="#231F20"/>
<path d="M19.7264 12.86C20.487 12.86 21.2165 12.5512 21.7544 12.0016C22.2922 11.4519 22.5944 10.7064 22.5944 9.92905C22.5944 9.1517 22.2922 8.40619 21.7544 7.85652C21.2165 7.30685 20.487 6.99805 19.7264 6.99805C18.9658 6.99805 18.2363 7.30685 17.6984 7.85652C17.1606 8.40619 16.8584 9.1517 16.8584 9.92905C16.8584 10.7064 17.1606 11.4519 17.6984 12.0016C18.2363 12.5512 18.9658 12.86 19.7264 12.86Z" fill="url(#paint0_linear_1_785)"/>
<path opacity="0.65" d="M19.7264 12.86C20.487 12.86 21.2165 12.5512 21.7544 12.0016C22.2922 11.4519 22.5944 10.7064 22.5944 9.92905C22.5944 9.1517 22.2922 8.40619 21.7544 7.85652C21.2165 7.30685 20.487 6.99805 19.7264 6.99805C18.9658 6.99805 18.2363 7.30685 17.6984 7.85652C17.1606 8.40619 16.8584 9.1517 16.8584 9.92905C16.8584 10.7064 17.1606 11.4519 17.6984 12.0016C18.2363 12.5512 18.9658 12.86 19.7264 12.86Z" fill="url(#paint1_linear_1_785)"/>
<path d="M35.7839 7.50596C35.7839 7.40596 35.7154 7.35596 35.6077 7.35596H35.4512V7.83596H35.5686V7.64596L35.7056 7.83596H35.8426L35.686 7.63596C35.7447 7.62596 35.7839 7.57596 35.7839 7.50596ZM35.5882 7.57596H35.5686V7.44596H35.5882C35.6469 7.44596 35.6762 7.46596 35.6762 7.50596C35.6762 7.55596 35.6469 7.57596 35.5882 7.57596Z" fill="#231F20"/>
<path d="M35.6273 7.17578C35.4022 7.17578 35.2163 7.36578 35.2163 7.59578C35.2163 7.82578 35.4022 8.01578 35.6273 8.01578C35.8523 8.01578 36.0383 7.82578 36.0383 7.59578C36.0383 7.36578 35.8523 7.17578 35.6273 7.17578ZM35.6273 7.94578C35.4511 7.94578 35.2946 7.79578 35.2946 7.59578C35.2946 7.40578 35.4414 7.24578 35.6273 7.24578C35.8034 7.24578 35.9502 7.40578 35.9502 7.59578C35.9502 7.78578 35.8034 7.94578 35.6273 7.94578Z" fill="#231F20"/>
<path d="M36.2048 12.9839C36.2048 12.9839 26.5078 19.8729 8.7832 22.9999H34.2468C34.7631 22.9999 35.2585 22.7914 35.6251 22.4198C35.9916 22.0481 36.1996 21.5435 36.2038 21.0159L36.2273 17.9959L36.2048 12.9849V12.9839Z" fill="#F48120"/>
</g>
<defs>
<linearGradient id="paint0_linear_1_785" x1="21.1912" y1="12.275" x2="19.148" y2="9.14433" gradientUnits="userSpaceOnUse">
<stop stop-color="#F89F20"/>
<stop offset="0.25" stop-color="#F79A20"/>
<stop offset="0.533" stop-color="#F68D20"/>
<stop offset="0.62" stop-color="#F58720"/>
<stop offset="0.723" stop-color="#F48120"/>
<stop offset="1" stop-color="#F37521"/>
</linearGradient>
<linearGradient id="paint1_linear_1_785" x1="20.8791" y1="12.232" x2="17.8817" y2="6.49887" gradientUnits="userSpaceOnUse">
<stop stop-color="#F58720"/>
<stop offset="0.359" stop-color="#E16F27"/>
<stop offset="0.703" stop-color="#D4602C"/>
<stop offset="0.982" stop-color="#D05B2E"/>
</linearGradient>
<clipPath id="clip0_1_785">
<rect width="37.1831" height="24" fill="white"/>
</clipPath>
</defs>
</svg>
