<svg width="38" height="24" viewBox="0 0 38 24" fill="none" xmlns="http://www.w3.org/2000/svg">
<g clip-path="url(#clip0_1_794)">
<path d="M34.2476 0H2.93551C1.27205 0 0 1.3 0 3V21C0 22.7 1.3699 24 2.93551 24H34.2476C35.911 24 37.1831 22.7 37.1831 21V3C37.1831 1.3 35.8132 0 34.2476 0Z" fill="#F3F5F6"/>
<path d="M34.2476 1C35.324 1 36.2046 1.9 36.2046 3V21C36.2046 22.1 35.324 23 34.2476 23H2.93552C1.85917 23 0.978516 22.1 0.978516 21V3C0.978516 1.9 1.85917 1 2.93552 1H34.2476Z" fill="white"/>
<path d="M23.3864 8.3C23.5821 7.3 23.3864 6.6 22.7993 6C22.2122 5.3 21.1358 5 19.7659 5H15.7541C15.4605 5 15.2648 5.2 15.167 5.5L13.6992 15.6C13.6992 15.8 13.7971 16 13.9928 16H16.6347L17.0261 12.6L18.7874 10.4L23.3864 8.3Z" fill="#003087"/>
<path d="M23.3862 8.2998L23.1905 8.4998C22.7013 11.2998 21.0378 12.2998 18.6894 12.2998H17.6131C17.3195 12.2998 17.1238 12.4998 17.026 12.7998L16.4389 16.6998L16.2432 17.6998C16.2432 17.8998 16.341 18.0998 16.5367 18.0998H18.5916C18.8851 18.0998 19.0808 17.8998 19.0808 17.6998V17.5998L19.4722 15.1998V15.0998C19.4722 14.8998 19.7658 14.6998 19.9615 14.6998H20.255C22.3099 14.6998 23.8755 13.8998 24.2669 11.4998C24.4626 10.4998 24.3647 9.6998 23.8755 9.0998C23.7776 8.5998 23.5819 8.3998 23.3862 8.2998Z" fill="#3086C8"/>
<path d="M22.799 8.0998C22.7012 7.9998 22.6033 7.9998 22.5055 7.9998C22.4076 7.9998 22.3098 7.9998 22.2119 7.8998C21.9184 7.7998 21.527 7.7998 21.1356 7.7998H18.2001C18.1022 7.7998 18.0044 7.7998 18.0044 7.8998C17.8087 7.9998 17.7108 8.0998 17.7108 8.2998L17.0259 12.6998V12.7998C17.0259 12.4998 17.3194 12.2998 17.613 12.2998H18.885C21.3313 12.2998 22.8969 11.2998 23.3861 8.4998V8.2998C23.2883 8.1998 23.0926 8.0998 22.8969 8.0998H22.799Z" fill="#012169"/>
</g>
<defs>
<clipPath id="clip0_1_794">
<rect width="37.1831" height="24" fill="white"/>
</clipPath>
</defs>
</svg>
