<svg width="23" height="24" viewBox="0 0 23 24" fill="none" xmlns="http://www.w3.org/2000/svg">
<path d="M9.50891 12.917C9.33221 12.917 9.15552 12.9905 9.02093 13.1367L3.45101 19.19V15.6972C3.45101 15.2825 3.14249 14.9472 2.76081 14.9472C2.37912 14.9472 2.0706 15.2825 2.0706 15.6972V20.9997C2.0706 21.4145 2.37912 21.7497 2.76081 21.7497H7.64053C8.02221 21.7497 8.33073 21.4145 8.33073 20.9997C8.33073 20.585 8.02221 20.2497 7.64053 20.2497H4.42764L9.99688 14.1972C10.2667 13.904 10.2667 13.43 9.99688 13.1367C9.86229 12.9897 9.6856 12.917 9.50891 12.917Z" fill="#041E42"/>
<path d="M19.4023 2.33301H14.5225C14.1408 2.33301 13.8323 2.66826 13.8323 3.08301C13.8323 3.49776 14.1408 3.83301 14.5225 3.83301H17.7361L12.0889 9.96951C11.819 10.2628 11.819 10.7368 12.0889 11.03C12.3587 11.3233 12.795 11.3233 13.0648 11.03L18.7121 4.89351V8.38551C18.7121 8.80026 19.0206 9.13551 19.4023 9.13551C19.7839 9.13551 20.0925 8.80026 20.0925 8.38551V3.08301C20.0925 2.66901 19.7839 2.33301 19.4023 2.33301Z" fill="#041E42"/>
</svg>
