<svg width="19" height="16" viewBox="0 0 19 16" fill="none" xmlns="http://www.w3.org/2000/svg">
<path d="M12.4536 2.58496C14.6627 2.58496 16.4531 4.13747 16.4531 6.31099C16.4531 10.658 10.9993 13.1421 9.1814 14.0736C7.36344 13.1421 1.90967 10.658 1.90967 6.31099C1.90967 4.13747 3.72759 2.58496 5.9091 2.58496C7.26163 2.58496 8.45419 3.20597 9.1814 3.82697C9.9085 3.20597 11.1011 2.58496 12.4536 2.58496ZM9.86055 12.2751C10.5011 11.9299 11.0793 11.5865 11.6203 11.2188C13.788 9.74703 14.9987 8.1386 14.9987 6.31099C14.9987 4.84542 13.8811 3.82697 12.4536 3.82697C11.6711 3.82697 10.8247 4.18094 10.2095 4.70507L9.1814 5.58317L8.15314 4.70507C7.53796 4.18094 6.69153 3.82697 5.9091 3.82697C4.49839 3.82697 3.36401 4.85536 3.36401 6.31099C3.36401 8.13925 4.57547 9.74703 6.74171 11.2188C7.28345 11.5865 7.86155 11.9299 8.50218 12.2745C8.71957 12.3919 8.93486 12.5043 9.1814 12.6297C9.42785 12.5043 9.64314 12.3919 9.86055 12.2751Z" fill="#041E42"/>
</svg>
