<svg width="18" height="20" viewBox="0 0 18 20" fill="none" xmlns="http://www.w3.org/2000/svg">
<g clip-path="url(#clip0_2359_381)">
<path d="M4.11104 10.1533L11.9891 19.0323C12.2472 19.3231 12.6651 19.3226 12.9228 19.0308C13.1803 18.7391 13.1796 18.2665 12.9215 17.9756L5.51233 9.62497L12.9217 1.27442C13.1798 0.983417 13.1805 0.511155 12.9231 0.219399C12.7939 0.0731443 12.6247 1.63272e-05 12.4554 1.63105e-05C12.2866 1.62938e-05 12.1181 0.0726551 11.9891 0.217894L4.11104 9.09673C3.98673 9.23652 3.91697 9.42676 3.91697 9.62497C3.91697 9.82319 3.98693 10.0132 4.11104 10.1533Z" fill="white"/>
</g>
<defs>
<clipPath id="clip0_2359_381">
<rect width="17.0325" height="19.25" fill="white" transform="translate(17.0327 19.25) rotate(-180)"/>
</clipPath>
</defs>
</svg>
