<svg width="19" height="20" viewBox="0 0 19 20" fill="none" xmlns="http://www.w3.org/2000/svg">
<g clip-path="url(#clip0_1_1624)">
<path d="M18.1915 9.12214C18.9543 8.33356 18.5334 6.95966 17.4794 6.79731L13.3813 6.16575C12.9626 6.1012 12.6008 5.82227 12.4136 5.42005L10.5809 1.48145C10.1094 0.468422 8.74743 0.468422 8.27612 1.48145L6.44338 5.42005C6.2562 5.82227 5.89437 6.1012 5.47572 6.16575L1.37762 6.79731C0.323494 6.95966 -0.0973216 8.33356 0.665326 9.12214L3.63089 12.1879C3.93373 12.501 4.07185 12.9521 4.00049 13.3943L3.30042 17.7232C3.1203 18.8366 4.22219 19.6858 5.16496 19.16L8.83044 17.1162C9.20479 16.9075 9.65208 16.9075 10.0264 17.1162L13.6919 19.16C14.6347 19.6856 15.7366 18.8366 15.5566 17.7232L14.8565 13.3943C14.785 12.9522 14.9233 12.501 15.2261 12.1879L18.1915 9.12214Z" fill="#F4E64C"/>
<path d="M4.77364 18.1145L5.4737 13.7856C5.5452 13.3434 5.40695 12.8923 5.1041 12.5792L2.13868 9.5134C1.37589 8.72482 1.79685 7.35092 2.85083 7.18857L6.94893 6.55701C7.36759 6.49246 7.72942 6.21368 7.91659 5.81131L9.74933 1.87271C9.90011 1.54877 10.1421 1.32904 10.4167 1.21231C9.84903 0.479431 8.70096 0.569152 8.27612 1.48209L6.44338 5.42068C6.2562 5.82306 5.89437 6.10184 5.47572 6.16638L1.37762 6.79794C0.323494 6.9603 -0.0973216 8.3342 0.665326 9.12277L3.63089 12.1886C3.93373 12.5017 4.07185 12.9527 4.00049 13.3949L3.30042 17.7238C3.12749 18.7929 4.1363 19.6175 5.05159 19.2163C4.82457 18.9296 4.70458 18.5417 4.77364 18.1145Z" fill="#FAB659"/>
<path d="M5.86646 9.1084V9.7392C5.86646 9.90109 5.99004 10.0322 6.14268 10.0322C6.29518 10.0322 6.41891 9.90109 6.41891 9.7392V9.1084C6.41891 8.94666 6.29518 8.81543 6.14268 8.81543C5.99004 8.81543 5.86646 8.94666 5.86646 9.1084Z" fill="black"/>
<path d="M12.9907 9.7392V9.1084C12.9907 8.94666 12.867 8.81543 12.7145 8.81543C12.562 8.81543 12.4382 8.94666 12.4382 9.1084V9.7392C12.4382 9.90109 12.562 10.0322 12.7145 10.0322C12.867 10.0322 12.9907 9.90109 12.9907 9.7392Z" fill="black"/>
<path d="M9.42858 10.3689C9.82436 10.3689 10.1958 10.1938 10.4476 9.88814C10.548 9.76637 10.5362 9.58128 10.4214 9.47478C10.3066 9.36827 10.1321 9.38063 10.0317 9.50255C9.88478 9.68077 9.66495 9.783 9.42858 9.783C9.1922 9.783 8.97237 9.68077 8.82548 9.50255C8.7252 9.38078 8.55069 9.36827 8.43574 9.47478C8.32093 9.58128 8.30913 9.76637 8.40955 9.88814C8.66132 10.1938 9.03279 10.3689 9.42858 10.3689Z" fill="black"/>
<path d="M3.72824 13.3456L3.02817 17.6747C2.92703 18.3005 3.16499 18.921 3.6494 19.2943C4.13366 19.6675 4.76366 19.7157 5.29367 19.4203L8.95916 17.3766C9.25308 17.2125 9.60412 17.2125 9.89804 17.3766C9.89804 17.3766 13.5634 19.4203 13.5635 19.4203C14.0771 19.7067 14.7258 19.6657 15.2078 19.2943C15.6921 18.921 15.9302 18.3005 15.8289 17.6747L15.5096 15.6999C15.4837 15.5405 15.3412 15.4333 15.1907 15.4607C15.0402 15.4881 14.9393 15.6395 14.9651 15.7989L15.2843 17.7737C15.3508 18.1842 15.2007 18.5754 14.8831 18.8202C14.5654 19.0651 14.1682 19.0955 13.8206 18.9017L10.1551 16.8579C9.70022 16.6042 9.15698 16.6042 8.70206 16.8579L5.03658 18.9017C4.68899 19.0955 4.29177 19.0651 3.97411 18.8202C3.65645 18.5754 3.50639 18.1842 3.57272 17.7737L4.27278 13.4448C4.35968 12.9076 4.19178 12.3596 3.82377 11.9791L0.858348 8.91327C0.577229 8.62259 0.4817 8.21258 0.602982 7.81647C0.724407 7.42035 1.02883 7.14813 1.41742 7.08816L5.51566 6.4566C6.02424 6.37817 6.46376 6.03958 6.69121 5.55069L7.54104 3.72452C7.60852 3.57941 7.55241 3.40378 7.41559 3.33206C7.27863 3.2605 7.11318 3.32001 7.04556 3.46512L6.19573 5.29144C6.04884 5.60715 5.76484 5.82611 5.4361 5.87677L1.33801 6.50833C0.745555 6.59958 0.262589 7.0314 0.0775737 7.63534C-0.107441 8.23913 0.0440523 8.88962 0.472637 9.33273L3.4382 12.3985C3.67601 12.6445 3.78449 12.9985 3.72824 13.3456Z" fill="black"/>
<path d="M17.5191 6.50833L13.4208 5.87677C13.0922 5.82611 12.8082 5.6073 12.6612 5.29144L10.8286 1.35269C10.5636 0.783386 10.0271 0.429688 9.42847 0.429688C8.82983 0.429688 8.29335 0.783386 8.02834 1.35269L7.56177 2.3555C7.4943 2.50046 7.55041 2.67624 7.68723 2.7478C7.82405 2.81937 7.98964 2.75986 8.05726 2.61475L8.52382 1.61209C8.69762 1.23856 9.03571 1.01562 9.42847 1.01562C9.82123 1.01562 10.1593 1.23856 10.3331 1.61209L12.1659 5.55069C12.3935 6.03958 12.8328 6.37817 13.3414 6.4566L17.4396 7.08817C17.8282 7.14813 18.1327 7.42035 18.2541 7.81647C18.3754 8.21259 18.28 8.62259 17.9987 8.91327L15.0333 11.9791C14.6653 12.3596 14.4974 12.9076 14.5843 13.4448C14.5843 13.4448 14.7345 14.3741 14.7348 14.3759C14.7602 14.5326 14.9064 14.642 15.0537 14.6152C15.2042 14.5879 15.3051 14.4363 15.2793 14.2769L15.1288 13.3458C15.0726 12.9987 15.1811 12.6445 15.4189 12.3987L18.3844 9.33289C18.813 8.88977 18.9645 8.23929 18.7795 7.63535C18.5945 7.0314 18.1115 6.59958 17.5191 6.50833Z" fill="black"/>
</g>
<defs>
<clipPath id="clip0_1_1624">
<rect width="18.8571" height="20" fill="white"/>
</clipPath>
</defs>
</svg>
